{
 "cells": [
  {
   "cell_type": "code",
   "execution_count": 8,
   "id": "6a929d4e",
   "metadata": {},
   "outputs": [
    {
     "name": "stdout",
     "output_type": "stream",
     "text": [
      "Collecting pygame\n",
      "  Downloading pygame-2.5.2-cp310-cp310-win_amd64.whl (10.8 MB)\n",
      "     --------------------------------------- 10.8/10.8 MB 11.3 MB/s eta 0:00:00\n",
      "Installing collected packages: pygame\n",
      "Successfully installed pygame-2.5.2\n"
     ]
    },
    {
     "name": "stderr",
     "output_type": "stream",
     "text": [
      "\n",
      "[notice] A new release of pip available: 22.2.2 -> 24.0\n",
      "[notice] To update, run: python.exe -m pip install --upgrade pip\n"
     ]
    }
   ],
   "source": [
    "!pip install pygame"
   ]
  },
  {
   "cell_type": "code",
   "execution_count": 1,
   "id": "1ce3495b",
   "metadata": {},
   "outputs": [
    {
     "name": "stdout",
     "output_type": "stream",
     "text": [
      "pygame 2.5.2 (SDL 2.28.3, Python 3.10.8)\n",
      "Hello from the pygame community. https://www.pygame.org/contribute.html\n"
     ]
    }
   ],
   "source": [
    "import pygame.midi"
   ]
  },
  {
   "cell_type": "code",
   "execution_count": 2,
   "id": "cfbe25ac",
   "metadata": {},
   "outputs": [],
   "source": [
    "pygame.midi.init()"
   ]
  },
  {
   "cell_type": "code",
   "execution_count": 3,
   "id": "88e37bfb",
   "metadata": {},
   "outputs": [
    {
     "data": {
      "text/plain": [
       "1"
      ]
     },
     "execution_count": 3,
     "metadata": {},
     "output_type": "execute_result"
    }
   ],
   "source": [
    "pygame.midi.get_default_input_id()"
   ]
  },
  {
   "cell_type": "code",
   "execution_count": 4,
   "id": "e2067c55",
   "metadata": {},
   "outputs": [
    {
     "data": {
      "text/plain": [
       "4"
      ]
     },
     "execution_count": 4,
     "metadata": {},
     "output_type": "execute_result"
    }
   ],
   "source": [
    "pygame.midi.get_count()"
   ]
  },
  {
   "cell_type": "code",
   "execution_count": 5,
   "id": "1fdc45d9",
   "metadata": {},
   "outputs": [
    {
     "data": {
      "text/plain": [
       "(b'MMSystem', b'nanoPAD2', 1, 0, 0)"
      ]
     },
     "execution_count": 5,
     "metadata": {},
     "output_type": "execute_result"
    }
   ],
   "source": [
    "pygame.midi.get_device_info(1)"
   ]
  },
  {
   "cell_type": "code",
   "execution_count": null,
   "id": "1581dc3a",
   "metadata": {},
   "outputs": [],
   "source": []
  },
  {
   "cell_type": "code",
   "execution_count": null,
   "id": "0ba333d4",
   "metadata": {},
   "outputs": [],
   "source": []
  },
  {
   "cell_type": "code",
   "execution_count": 6,
   "id": "6dc67c11",
   "metadata": {},
   "outputs": [],
   "source": [
    "korg = pygame.midi.Input(1)"
   ]
  },
  {
   "cell_type": "code",
   "execution_count": 17,
   "id": "0dc1ae81",
   "metadata": {},
   "outputs": [
    {
     "data": {
      "text/plain": [
       "True"
      ]
     },
     "execution_count": 17,
     "metadata": {},
     "output_type": "execute_result"
    }
   ],
   "source": [
    "korg.poll()"
   ]
  },
  {
   "cell_type": "code",
   "execution_count": 24,
   "id": "4f11efe6",
   "metadata": {},
   "outputs": [
    {
     "data": {
      "text/plain": [
       "[[[176, 2, 63, 0], 21547], [[176, 1, 73, 0], 21551], [[176, 2, 66, 0], 21551]]"
      ]
     },
     "execution_count": 24,
     "metadata": {},
     "output_type": "execute_result"
    }
   ],
   "source": [
    "korg.read(3)"
   ]
  },
  {
   "cell_type": "code",
   "execution_count": null,
   "id": "c5eda212",
   "metadata": {},
   "outputs": [],
   "source": []
  },
  {
   "cell_type": "code",
   "execution_count": null,
   "id": "24b175fa",
   "metadata": {},
   "outputs": [],
   "source": []
  },
  {
   "cell_type": "code",
   "execution_count": null,
   "id": "31775134",
   "metadata": {},
   "outputs": [],
   "source": []
  },
  {
   "cell_type": "code",
   "execution_count": null,
   "id": "1631ea63",
   "metadata": {},
   "outputs": [],
   "source": []
  },
  {
   "cell_type": "code",
   "execution_count": 1,
   "id": "c329c673",
   "metadata": {},
   "outputs": [
    {
     "name": "stdout",
     "output_type": "stream",
     "text": [
      "pygame 2.5.2 (SDL 2.28.3, Python 3.10.8)\n",
      "Hello from the pygame community. https://www.pygame.org/contribute.html\n",
      "['nanoPAD2']\n",
      "note_on channel=0 note=36 velocity=65 time=0\n",
      "note_off channel=0 note=36 velocity=64 time=0\n",
      "note_on channel=0 note=36 velocity=72 time=0\n",
      "note_off channel=0 note=36 velocity=64 time=0\n",
      "note_on channel=0 note=36 velocity=61 time=0\n",
      "note_off channel=0 note=36 velocity=64 time=0\n",
      "note_on channel=0 note=36 velocity=55 time=0\n",
      "note_off channel=0 note=36 velocity=64 time=0\n",
      "note_on channel=0 note=36 velocity=55 time=0\n",
      "note_off channel=0 note=36 velocity=64 time=0\n",
      "control_change channel=0 control=16 value=127 time=0\n",
      "control_change channel=0 control=1 value=127 time=0\n",
      "control_change channel=0 control=2 value=4 time=0\n",
      "control_change channel=0 control=2 value=5 time=0\n",
      "control_change channel=0 control=2 value=8 time=0\n",
      "control_change channel=0 control=2 value=10 time=0\n",
      "control_change channel=0 control=16 value=0 time=0\n",
      "note_on channel=0 note=37 velocity=53 time=0\n",
      "note_off channel=0 note=37 velocity=64 time=0\n",
      "control_change channel=0 control=16 value=127 time=0\n",
      "control_change channel=0 control=1 value=93 time=0\n",
      "control_change channel=0 control=2 value=73 time=0\n",
      "control_change channel=0 control=1 value=92 time=0\n",
      "control_change channel=0 control=2 value=71 time=0\n",
      "control_change channel=0 control=1 value=80 time=0\n",
      "control_change channel=0 control=2 value=61 time=0\n",
      "control_change channel=0 control=1 value=83 time=0\n",
      "control_change channel=0 control=2 value=60 time=0\n",
      "control_change channel=0 control=1 value=80 time=0\n",
      "control_change channel=0 control=1 value=78 time=0\n",
      "control_change channel=0 control=2 value=61 time=0\n",
      "control_change channel=0 control=1 value=81 time=0\n",
      "control_change channel=0 control=2 value=63 time=0\n",
      "control_change channel=0 control=1 value=83 time=0\n",
      "control_change channel=0 control=1 value=85 time=0\n",
      "control_change channel=0 control=2 value=66 time=0\n",
      "control_change channel=0 control=1 value=86 time=0\n",
      "control_change channel=0 control=1 value=89 time=0\n",
      "control_change channel=0 control=2 value=69 time=0\n",
      "control_change channel=0 control=2 value=73 time=0\n",
      "control_change channel=0 control=1 value=91 time=0\n",
      "control_change channel=0 control=1 value=96 time=0\n",
      "control_change channel=0 control=1 value=97 time=0\n",
      "control_change channel=0 control=1 value=99 time=0\n",
      "control_change channel=0 control=2 value=76 time=0\n",
      "control_change channel=0 control=1 value=101 time=0\n",
      "control_change channel=0 control=2 value=79 time=0\n",
      "control_change channel=0 control=1 value=102 time=0\n",
      "control_change channel=0 control=2 value=83 time=0\n",
      "control_change channel=0 control=2 value=85 time=0\n",
      "control_change channel=0 control=1 value=105 time=0\n",
      "control_change channel=0 control=2 value=88 time=0\n",
      "control_change channel=0 control=1 value=107 time=0\n",
      "control_change channel=0 control=1 value=109 time=0\n",
      "control_change channel=0 control=1 value=110 time=0\n",
      "control_change channel=0 control=2 value=90 time=0\n",
      "control_change channel=0 control=1 value=112 time=0\n",
      "control_change channel=0 control=1 value=114 time=0\n",
      "control_change channel=0 control=2 value=93 time=0\n",
      "control_change channel=0 control=2 value=96 time=0\n",
      "control_change channel=0 control=1 value=115 time=0\n",
      "control_change channel=0 control=2 value=99 time=0\n",
      "control_change channel=0 control=2 value=101 time=0\n",
      "control_change channel=0 control=2 value=99 time=0\n",
      "control_change channel=0 control=2 value=96 time=0\n",
      "control_change channel=0 control=1 value=111 time=0\n",
      "control_change channel=0 control=2 value=94 time=0\n",
      "control_change channel=0 control=1 value=109 time=0\n",
      "control_change channel=0 control=2 value=92 time=0\n",
      "control_change channel=0 control=1 value=107 time=0\n",
      "control_change channel=0 control=2 value=90 time=0\n",
      "control_change channel=0 control=1 value=104 time=0\n",
      "control_change channel=0 control=1 value=103 time=0\n",
      "control_change channel=0 control=2 value=89 time=0\n",
      "control_change channel=0 control=2 value=87 time=0\n",
      "control_change channel=0 control=2 value=82 time=0\n",
      "control_change channel=0 control=2 value=79 time=0\n",
      "control_change channel=0 control=2 value=77 time=0\n",
      "control_change channel=0 control=1 value=99 time=0\n",
      "control_change channel=0 control=2 value=74 time=0\n",
      "control_change channel=0 control=1 value=98 time=0\n",
      "control_change channel=0 control=1 value=99 time=0\n",
      "control_change channel=0 control=1 value=101 time=0\n",
      "control_change channel=0 control=1 value=102 time=0\n",
      "control_change channel=0 control=1 value=104 time=0\n",
      "control_change channel=0 control=1 value=106 time=0\n",
      "control_change channel=0 control=1 value=107 time=0\n",
      "control_change channel=0 control=1 value=110 time=0\n",
      "control_change channel=0 control=1 value=112 time=0\n",
      "control_change channel=0 control=1 value=115 time=0\n",
      "control_change channel=0 control=2 value=79 time=0\n",
      "control_change channel=0 control=2 value=82 time=0\n",
      "control_change channel=0 control=2 value=86 time=0\n",
      "control_change channel=0 control=2 value=89 time=0\n",
      "control_change channel=0 control=1 value=118 time=0\n",
      "control_change channel=0 control=2 value=90 time=0\n",
      "control_change channel=0 control=2 value=92 time=0\n",
      "control_change channel=0 control=1 value=115 time=0\n",
      "control_change channel=0 control=1 value=114 time=0\n",
      "control_change channel=0 control=2 value=90 time=0\n",
      "control_change channel=0 control=16 value=0 time=0\n",
      "note_on channel=0 note=37 velocity=38 time=0\n",
      "note_off channel=0 note=37 velocity=64 time=0\n",
      "note_on channel=0 note=36 velocity=71 time=0\n",
      "note_off channel=0 note=36 velocity=64 time=0\n",
      "note_on channel=0 note=39 velocity=71 time=0\n",
      "note_off channel=0 note=39 velocity=64 time=0\n",
      "note_on channel=0 note=38 velocity=59 time=0\n",
      "note_off channel=0 note=38 velocity=64 time=0\n",
      "note_on channel=0 note=37 velocity=126 time=0\n",
      "note_off channel=0 note=37 velocity=64 time=0\n",
      "note_on channel=0 note=37 velocity=53 time=0\n",
      "note_off channel=0 note=37 velocity=64 time=0\n",
      "note_on channel=0 note=36 velocity=60 time=0\n",
      "note_off channel=0 note=36 velocity=64 time=0\n",
      "sysex data=(66,64,0,1,18,0,95,79,1) time=0\n",
      "sysex data=(66,64,0,1,18,0,95,79,2) time=0\n",
      "sysex data=(66,64,0,1,18,0,95,79,3) time=0\n",
      "sysex data=(66,64,0,1,18,0,95,79,0) time=0\n",
      "control_change channel=0 control=16 value=127 time=0\n",
      "control_change channel=0 control=1 value=32 time=0\n",
      "control_change channel=0 control=2 value=89 time=0\n",
      "control_change channel=0 control=1 value=29 time=0\n",
      "control_change channel=0 control=1 value=0 time=0\n",
      "control_change channel=0 control=2 value=127 time=0\n",
      "control_change channel=0 control=1 value=68 time=0\n",
      "control_change channel=0 control=2 value=75 time=0\n",
      "control_change channel=0 control=1 value=67 time=0\n",
      "control_change channel=0 control=1 value=44 time=0\n",
      "control_change channel=0 control=2 value=127 time=0\n",
      "control_change channel=0 control=1 value=42 time=0\n",
      "control_change channel=0 control=1 value=40 time=0\n",
      "control_change channel=0 control=1 value=39 time=0\n",
      "control_change channel=0 control=1 value=37 time=0\n",
      "control_change channel=0 control=2 value=126 time=0\n",
      "control_change channel=0 control=1 value=40 time=0\n",
      "control_change channel=0 control=2 value=124 time=0\n",
      "control_change channel=0 control=1 value=41 time=0\n",
      "control_change channel=0 control=1 value=42 time=0\n",
      "control_change channel=0 control=2 value=122 time=0\n",
      "control_change channel=0 control=1 value=44 time=0\n",
      "control_change channel=0 control=1 value=45 time=0\n",
      "control_change channel=0 control=1 value=47 time=0\n",
      "control_change channel=0 control=2 value=120 time=0\n",
      "control_change channel=0 control=1 value=48 time=0\n",
      "control_change channel=0 control=1 value=50 time=0\n",
      "control_change channel=0 control=1 value=51 time=0\n",
      "control_change channel=0 control=2 value=118 time=0\n",
      "control_change channel=0 control=1 value=53 time=0\n",
      "control_change channel=0 control=1 value=55 time=0\n",
      "control_change channel=0 control=2 value=116 time=0\n",
      "control_change channel=0 control=1 value=58 time=0\n",
      "control_change channel=0 control=1 value=59 time=0\n",
      "control_change channel=0 control=2 value=113 time=0\n",
      "control_change channel=0 control=1 value=61 time=0\n",
      "control_change channel=0 control=1 value=62 time=0\n",
      "control_change channel=0 control=2 value=111 time=0\n",
      "control_change channel=0 control=1 value=64 time=0\n",
      "control_change channel=0 control=1 value=67 time=0\n",
      "control_change channel=0 control=2 value=108 time=0\n",
      "control_change channel=0 control=1 value=69 time=0\n",
      "control_change channel=0 control=1 value=71 time=0\n",
      "control_change channel=0 control=2 value=105 time=0\n",
      "control_change channel=0 control=1 value=74 time=0\n",
      "control_change channel=0 control=2 value=104 time=0\n",
      "control_change channel=0 control=1 value=77 time=0\n",
      "control_change channel=0 control=2 value=102 time=0\n",
      "control_change channel=0 control=1 value=78 time=0\n",
      "control_change channel=0 control=2 value=99 time=0\n",
      "control_change channel=0 control=1 value=80 time=0\n",
      "control_change channel=0 control=2 value=96 time=0\n",
      "control_change channel=0 control=1 value=83 time=0\n",
      "control_change channel=0 control=2 value=93 time=0\n",
      "control_change channel=0 control=1 value=85 time=0\n",
      "control_change channel=0 control=2 value=90 time=0\n",
      "control_change channel=0 control=1 value=88 time=0\n",
      "control_change channel=0 control=1 value=90 time=0\n",
      "control_change channel=0 control=2 value=88 time=0\n",
      "control_change channel=0 control=1 value=91 time=0\n",
      "control_change channel=0 control=2 value=86 time=0\n",
      "control_change channel=0 control=2 value=84 time=0\n"
     ]
    },
    {
     "name": "stdout",
     "output_type": "stream",
     "text": [
      "note_on channel=0 note=44 velocity=71 time=0\n",
      "note_off channel=0 note=44 velocity=64 time=0\n",
      "note_on channel=0 note=44 velocity=89 time=0\n",
      "note_off channel=0 note=44 velocity=64 time=0\n",
      "note_on channel=0 note=44 velocity=73 time=0\n",
      "note_off channel=0 note=44 velocity=64 time=0\n",
      "note_on channel=0 note=44 velocity=85 time=0\n",
      "note_off channel=0 note=44 velocity=64 time=0\n",
      "note_on channel=0 note=42 velocity=84 time=0\n",
      "note_off channel=0 note=42 velocity=64 time=0\n",
      "note_on channel=0 note=40 velocity=65 time=0\n",
      "note_off channel=0 note=40 velocity=64 time=0\n",
      "note_on channel=0 note=47 velocity=89 time=0\n",
      "note_off channel=0 note=47 velocity=64 time=0\n",
      "note_on channel=0 note=47 velocity=94 time=0\n",
      "note_off channel=0 note=47 velocity=64 time=0\n",
      "control_change channel=0 control=1 value=42 time=0\n",
      "control_change channel=0 control=2 value=86 time=0\n",
      "control_change channel=0 control=1 value=43 time=0\n",
      "control_change channel=0 control=2 value=81 time=0\n",
      "control_change channel=0 control=2 value=78 time=0\n",
      "control_change channel=0 control=2 value=76 time=0\n",
      "control_change channel=0 control=2 value=75 time=0\n",
      "control_change channel=0 control=1 value=45 time=0\n",
      "control_change channel=0 control=2 value=73 time=0\n",
      "control_change channel=0 control=2 value=70 time=0\n",
      "control_change channel=0 control=2 value=68 time=0\n",
      "control_change channel=0 control=2 value=60 time=0\n",
      "control_change channel=0 control=1 value=46 time=0\n",
      "control_change channel=0 control=2 value=59 time=0\n",
      "control_change channel=0 control=1 value=48 time=0\n",
      "control_change channel=0 control=1 value=50 time=0\n",
      "control_change channel=0 control=1 value=52 time=0\n",
      "control_change channel=0 control=2 value=57 time=0\n",
      "control_change channel=0 control=1 value=54 time=0\n",
      "control_change channel=0 control=2 value=54 time=0\n",
      "control_change channel=0 control=1 value=56 time=0\n",
      "control_change channel=0 control=1 value=57 time=0\n",
      "control_change channel=0 control=2 value=57 time=0\n",
      "control_change channel=0 control=1 value=59 time=0\n",
      "control_change channel=0 control=1 value=61 time=0\n",
      "control_change channel=0 control=2 value=59 time=0\n",
      "control_change channel=0 control=1 value=63 time=0\n",
      "control_change channel=0 control=2 value=60 time=0\n",
      "control_change channel=0 control=1 value=67 time=0\n",
      "control_change channel=0 control=2 value=74 time=0\n",
      "control_change channel=0 control=2 value=77 time=0\n",
      "control_change channel=0 control=2 value=80 time=0\n",
      "control_change channel=0 control=2 value=82 time=0\n",
      "control_change channel=0 control=2 value=85 time=0\n",
      "control_change channel=0 control=2 value=87 time=0\n",
      "control_change channel=0 control=1 value=66 time=0\n",
      "control_change channel=0 control=2 value=89 time=0\n",
      "control_change channel=0 control=1 value=56 time=0\n",
      "control_change channel=0 control=2 value=103 time=0\n",
      "control_change channel=0 control=2 value=105 time=0\n",
      "control_change channel=0 control=1 value=54 time=0\n",
      "control_change channel=0 control=1 value=53 time=0\n",
      "control_change channel=0 control=1 value=48 time=0\n",
      "control_change channel=0 control=1 value=45 time=0\n",
      "control_change channel=0 control=1 value=43 time=0\n",
      "control_change channel=0 control=2 value=102 time=0\n",
      "control_change channel=0 control=1 value=32 time=0\n",
      "control_change channel=0 control=2 value=88 time=0\n",
      "control_change channel=0 control=1 value=30 time=0\n",
      "control_change channel=0 control=2 value=85 time=0\n",
      "control_change channel=0 control=2 value=81 time=0\n",
      "control_change channel=0 control=2 value=75 time=0\n",
      "control_change channel=0 control=1 value=29 time=0\n",
      "control_change channel=0 control=2 value=74 time=0\n",
      "control_change channel=0 control=1 value=31 time=0\n",
      "control_change channel=0 control=2 value=70 time=0\n",
      "control_change channel=0 control=1 value=32 time=0\n",
      "control_change channel=0 control=1 value=34 time=0\n",
      "control_change channel=0 control=1 value=38 time=0\n",
      "control_change channel=0 control=2 value=73 time=0\n",
      "control_change channel=0 control=1 value=41 time=0\n",
      "control_change channel=0 control=1 value=42 time=0\n",
      "control_change channel=0 control=2 value=71 time=0\n",
      "control_change channel=0 control=1 value=44 time=0\n",
      "control_change channel=0 control=1 value=46 time=0\n",
      "control_change channel=0 control=1 value=48 time=0\n",
      "control_change channel=0 control=2 value=74 time=0\n",
      "control_change channel=0 control=1 value=52 time=0\n",
      "control_change channel=0 control=2 value=76 time=0\n",
      "control_change channel=0 control=1 value=53 time=0\n",
      "control_change channel=0 control=2 value=78 time=0\n",
      "control_change channel=0 control=1 value=55 time=0\n",
      "control_change channel=0 control=2 value=81 time=0\n",
      "control_change channel=0 control=1 value=56 time=0\n",
      "control_change channel=0 control=2 value=85 time=0\n",
      "control_change channel=0 control=1 value=59 time=0\n",
      "control_change channel=0 control=2 value=88 time=0\n",
      "control_change channel=0 control=1 value=61 time=0\n",
      "control_change channel=0 control=1 value=62 time=0\n",
      "control_change channel=0 control=1 value=59 time=0\n",
      "control_change channel=0 control=1 value=56 time=0\n",
      "control_change channel=0 control=2 value=90 time=0\n",
      "control_change channel=0 control=2 value=95 time=0\n",
      "control_change channel=0 control=2 value=103 time=0\n",
      "control_change channel=0 control=1 value=55 time=0\n",
      "control_change channel=0 control=1 value=52 time=0\n",
      "control_change channel=0 control=1 value=49 time=0\n",
      "control_change channel=0 control=1 value=46 time=0\n",
      "control_change channel=0 control=1 value=43 time=0\n",
      "control_change channel=0 control=1 value=42 time=0\n",
      "control_change channel=0 control=1 value=40 time=0\n",
      "control_change channel=0 control=1 value=37 time=0\n",
      "control_change channel=0 control=2 value=100 time=0\n",
      "control_change channel=0 control=1 value=35 time=0\n",
      "control_change channel=0 control=2 value=98 time=0\n",
      "control_change channel=0 control=1 value=31 time=0\n",
      "control_change channel=0 control=2 value=90 time=0\n",
      "control_change channel=0 control=2 value=88 time=0\n",
      "control_change channel=0 control=1 value=0 time=0\n",
      "control_change channel=0 control=2 value=127 time=0\n",
      "control_change channel=0 control=1 value=1 time=0\n",
      "control_change channel=0 control=1 value=2 time=0\n",
      "control_change channel=0 control=1 value=4 time=0\n",
      "control_change channel=0 control=2 value=126 time=0\n",
      "control_change channel=0 control=1 value=5 time=0\n",
      "control_change channel=0 control=2 value=124 time=0\n",
      "control_change channel=0 control=1 value=7 time=0\n",
      "control_change channel=0 control=2 value=122 time=0\n",
      "control_change channel=0 control=1 value=8 time=0\n",
      "control_change channel=0 control=2 value=120 time=0\n",
      "control_change channel=0 control=1 value=10 time=0\n",
      "control_change channel=0 control=2 value=119 time=0\n",
      "control_change channel=0 control=1 value=12 time=0\n",
      "control_change channel=0 control=1 value=13 time=0\n",
      "control_change channel=0 control=2 value=117 time=0\n",
      "control_change channel=0 control=1 value=15 time=0\n",
      "control_change channel=0 control=1 value=16 time=0\n",
      "control_change channel=0 control=2 value=115 time=0\n",
      "control_change channel=0 control=1 value=18 time=0\n",
      "control_change channel=0 control=1 value=19 time=0\n",
      "control_change channel=0 control=1 value=21 time=0\n",
      "control_change channel=0 control=2 value=113 time=0\n",
      "control_change channel=0 control=1 value=23 time=0\n",
      "control_change channel=0 control=1 value=24 time=0\n",
      "control_change channel=0 control=2 value=111 time=0\n",
      "control_change channel=0 control=1 value=26 time=0\n",
      "control_change channel=0 control=2 value=109 time=0\n",
      "control_change channel=0 control=1 value=27 time=0\n",
      "control_change channel=0 control=1 value=29 time=0\n",
      "control_change channel=0 control=2 value=107 time=0\n",
      "control_change channel=0 control=1 value=30 time=0\n",
      "control_change channel=0 control=1 value=32 time=0\n",
      "control_change channel=0 control=2 value=105 time=0\n",
      "control_change channel=0 control=2 value=104 time=0\n",
      "control_change channel=0 control=1 value=33 time=0\n",
      "control_change channel=0 control=2 value=102 time=0\n",
      "control_change channel=0 control=1 value=34 time=0\n",
      "control_change channel=0 control=1 value=36 time=0\n",
      "control_change channel=0 control=2 value=99 time=0\n",
      "control_change channel=0 control=1 value=38 time=0\n",
      "control_change channel=0 control=2 value=97 time=0\n",
      "control_change channel=0 control=1 value=40 time=0\n",
      "control_change channel=0 control=1 value=41 time=0\n",
      "control_change channel=0 control=2 value=95 time=0\n",
      "control_change channel=0 control=1 value=42 time=0\n",
      "control_change channel=0 control=1 value=44 time=0\n",
      "control_change channel=0 control=2 value=93 time=0\n",
      "control_change channel=0 control=1 value=46 time=0\n",
      "control_change channel=0 control=2 value=91 time=0\n",
      "control_change channel=0 control=1 value=48 time=0\n",
      "control_change channel=0 control=2 value=89 time=0\n",
      "control_change channel=0 control=1 value=49 time=0\n",
      "control_change channel=0 control=1 value=51 time=0\n",
      "control_change channel=0 control=2 value=86 time=0\n",
      "control_change channel=0 control=1 value=53 time=0\n",
      "control_change channel=0 control=2 value=84 time=0\n",
      "control_change channel=0 control=1 value=54 time=0\n",
      "control_change channel=0 control=1 value=56 time=0\n",
      "control_change channel=0 control=2 value=82 time=0\n",
      "control_change channel=0 control=1 value=59 time=0\n",
      "control_change channel=0 control=2 value=80 time=0\n",
      "control_change channel=0 control=1 value=60 time=0\n",
      "control_change channel=0 control=1 value=61 time=0\n",
      "control_change channel=0 control=2 value=78 time=0\n",
      "control_change channel=0 control=1 value=63 time=0\n",
      "control_change channel=0 control=2 value=76 time=0\n",
      "control_change channel=0 control=1 value=64 time=0\n",
      "control_change channel=0 control=1 value=66 time=0\n",
      "control_change channel=0 control=1 value=67 time=0\n",
      "control_change channel=0 control=2 value=74 time=0\n",
      "control_change channel=0 control=2 value=72 time=0\n",
      "control_change channel=0 control=1 value=69 time=0\n",
      "control_change channel=0 control=2 value=70 time=0\n",
      "control_change channel=0 control=1 value=72 time=0\n"
     ]
    },
    {
     "name": "stdout",
     "output_type": "stream",
     "text": [
      "control_change channel=0 control=2 value=68 time=0\n",
      "control_change channel=0 control=1 value=74 time=0\n",
      "control_change channel=0 control=1 value=76 time=0\n",
      "control_change channel=0 control=2 value=65 time=0\n",
      "control_change channel=0 control=1 value=78 time=0\n",
      "control_change channel=0 control=1 value=80 time=0\n",
      "control_change channel=0 control=2 value=63 time=0\n",
      "control_change channel=0 control=1 value=83 time=0\n",
      "control_change channel=0 control=1 value=84 time=0\n",
      "control_change channel=0 control=1 value=86 time=0\n",
      "control_change channel=0 control=2 value=60 time=0\n",
      "control_change channel=0 control=1 value=88 time=0\n",
      "control_change channel=0 control=2 value=59 time=0\n",
      "control_change channel=0 control=1 value=89 time=0\n",
      "control_change channel=0 control=1 value=91 time=0\n",
      "control_change channel=0 control=2 value=57 time=0\n",
      "control_change channel=0 control=1 value=93 time=0\n",
      "control_change channel=0 control=2 value=54 time=0\n",
      "control_change channel=0 control=1 value=95 time=0\n",
      "control_change channel=0 control=2 value=52 time=0\n",
      "control_change channel=0 control=1 value=96 time=0\n",
      "control_change channel=0 control=2 value=50 time=0\n",
      "control_change channel=0 control=1 value=98 time=0\n",
      "control_change channel=0 control=1 value=100 time=0\n",
      "control_change channel=0 control=2 value=47 time=0\n",
      "control_change channel=0 control=1 value=102 time=0\n",
      "control_change channel=0 control=1 value=103 time=0\n",
      "control_change channel=0 control=2 value=45 time=0\n",
      "control_change channel=0 control=1 value=105 time=0\n",
      "control_change channel=0 control=2 value=44 time=0\n",
      "control_change channel=0 control=1 value=107 time=0\n",
      "control_change channel=0 control=2 value=42 time=0\n",
      "control_change channel=0 control=2 value=39 time=0\n",
      "control_change channel=0 control=1 value=108 time=0\n",
      "control_change channel=0 control=1 value=110 time=0\n",
      "control_change channel=0 control=2 value=36 time=0\n",
      "control_change channel=0 control=2 value=34 time=0\n",
      "control_change channel=0 control=1 value=111 time=0\n",
      "control_change channel=0 control=1 value=113 time=0\n",
      "control_change channel=0 control=2 value=32 time=0\n",
      "control_change channel=0 control=1 value=115 time=0\n",
      "control_change channel=0 control=2 value=30 time=0\n",
      "control_change channel=0 control=1 value=117 time=0\n",
      "control_change channel=0 control=1 value=118 time=0\n",
      "control_change channel=0 control=2 value=28 time=0\n",
      "control_change channel=0 control=1 value=120 time=0\n",
      "control_change channel=0 control=2 value=26 time=0\n",
      "control_change channel=0 control=1 value=122 time=0\n",
      "control_change channel=0 control=2 value=24 time=0\n",
      "control_change channel=0 control=1 value=123 time=0\n",
      "control_change channel=0 control=2 value=21 time=0\n",
      "control_change channel=0 control=1 value=125 time=0\n",
      "control_change channel=0 control=2 value=19 time=0\n",
      "control_change channel=0 control=1 value=126 time=0\n",
      "control_change channel=0 control=1 value=127 time=0\n",
      "control_change channel=0 control=2 value=17 time=0\n",
      "control_change channel=0 control=2 value=15 time=0\n",
      "control_change channel=0 control=2 value=14 time=0\n",
      "control_change channel=0 control=2 value=12 time=0\n",
      "control_change channel=0 control=2 value=10 time=0\n",
      "control_change channel=0 control=2 value=8 time=0\n",
      "control_change channel=0 control=2 value=10 time=0\n",
      "control_change channel=0 control=1 value=0 time=0\n",
      "control_change channel=0 control=2 value=127 time=0\n",
      "control_change channel=0 control=1 value=127 time=0\n",
      "control_change channel=0 control=2 value=9 time=0\n",
      "control_change channel=0 control=2 value=7 time=0\n",
      "control_change channel=0 control=2 value=4 time=0\n",
      "control_change channel=0 control=2 value=6 time=0\n",
      "control_change channel=0 control=2 value=8 time=0\n",
      "control_change channel=0 control=2 value=9 time=0\n",
      "control_change channel=0 control=2 value=6 time=0\n",
      "control_change channel=0 control=2 value=8 time=0\n",
      "control_change channel=0 control=1 value=0 time=0\n",
      "control_change channel=0 control=2 value=18 time=0\n",
      "control_change channel=0 control=2 value=12 time=0\n",
      "control_change channel=0 control=2 value=10 time=0\n",
      "control_change channel=0 control=2 value=13 time=0\n",
      "control_change channel=0 control=1 value=127 time=0\n",
      "control_change channel=0 control=2 value=7 time=0\n",
      "control_change channel=0 control=2 value=4 time=0\n",
      "control_change channel=0 control=2 value=6 time=0\n",
      "control_change channel=0 control=2 value=8 time=0\n",
      "control_change channel=0 control=2 value=127 time=0\n",
      "control_change channel=0 control=2 value=4 time=0\n",
      "control_change channel=0 control=2 value=3 time=0\n",
      "control_change channel=0 control=2 value=6 time=0\n",
      "control_change channel=0 control=2 value=8 time=0\n",
      "control_change channel=0 control=2 value=127 time=0\n",
      "control_change channel=0 control=1 value=126 time=0\n",
      "control_change channel=0 control=1 value=127 time=0\n",
      "control_change channel=0 control=2 value=126 time=0\n",
      "control_change channel=0 control=2 value=127 time=0\n",
      "control_change channel=0 control=1 value=126 time=0\n",
      "control_change channel=0 control=1 value=127 time=0\n",
      "control_change channel=0 control=1 value=0 time=0\n",
      "control_change channel=0 control=2 value=125 time=0\n",
      "control_change channel=0 control=2 value=127 time=0\n",
      "control_change channel=0 control=2 value=126 time=0\n",
      "control_change channel=0 control=2 value=127 time=0\n",
      "control_change channel=0 control=2 value=125 time=0\n",
      "control_change channel=0 control=1 value=6 time=0\n",
      "control_change channel=0 control=2 value=120 time=0\n",
      "control_change channel=0 control=2 value=127 time=0\n",
      "control_change channel=0 control=1 value=0 time=0\n",
      "control_change channel=0 control=2 value=124 time=0\n",
      "control_change channel=0 control=1 value=5 time=0\n",
      "control_change channel=0 control=2 value=120 time=0\n",
      "control_change channel=0 control=1 value=0 time=0\n",
      "control_change channel=0 control=2 value=127 time=0\n",
      "control_change channel=0 control=2 value=125 time=0\n",
      "control_change channel=0 control=2 value=122 time=0\n",
      "control_change channel=0 control=2 value=125 time=0\n",
      "control_change channel=0 control=2 value=127 time=0\n",
      "control_change channel=0 control=2 value=126 time=0\n",
      "control_change channel=0 control=2 value=124 time=0\n",
      "control_change channel=0 control=2 value=126 time=0\n",
      "control_change channel=0 control=2 value=124 time=0\n",
      "note_on channel=0 note=45 velocity=78 time=0\n",
      "note_off channel=0 note=45 velocity=64 time=0\n",
      "note_on channel=0 note=43 velocity=80 time=0\n",
      "note_off channel=0 note=43 velocity=64 time=0\n",
      "control_change channel=0 control=16 value=0 time=0\n",
      "sysex data=(66,64,0,1,18,0,95,79,1) time=0\n",
      "sysex data=(66,64,0,1,18,0,95,79,2) time=0\n",
      "sysex data=(66,64,0,1,18,0,95,79,3) time=0\n",
      "sysex data=(66,64,0,1,18,0,95,79,0) time=0\n",
      "note_on channel=0 note=49 velocity=82 time=0\n",
      "note_off channel=0 note=49 velocity=64 time=0\n",
      "note_on channel=0 note=47 velocity=92 time=0\n",
      "note_off channel=0 note=47 velocity=64 time=0\n",
      "note_on channel=0 note=45 velocity=102 time=0\n",
      "note_off channel=0 note=45 velocity=64 time=0\n",
      "note_on channel=0 note=43 velocity=107 time=0\n",
      "note_off channel=0 note=43 velocity=64 time=0\n",
      "note_on channel=0 note=41 velocity=97 time=0\n",
      "note_off channel=0 note=41 velocity=64 time=0\n",
      "note_on channel=0 note=39 velocity=97 time=0\n",
      "note_off channel=0 note=39 velocity=64 time=0\n",
      "note_on channel=0 note=39 velocity=78 time=0\n",
      "note_off channel=0 note=39 velocity=64 time=0\n",
      "note_on channel=0 note=37 velocity=107 time=0\n",
      "note_off channel=0 note=37 velocity=64 time=0\n",
      "note_on channel=0 note=45 velocity=81 time=0\n",
      "note_off channel=0 note=45 velocity=64 time=0\n",
      "note_on channel=0 note=43 velocity=97 time=0\n",
      "note_off channel=0 note=43 velocity=64 time=0\n",
      "note_on channel=0 note=41 velocity=85 time=0\n",
      "note_off channel=0 note=41 velocity=64 time=0\n",
      "note_on channel=0 note=39 velocity=102 time=0\n",
      "note_off channel=0 note=39 velocity=64 time=0\n",
      "note_on channel=0 note=37 velocity=91 time=0\n",
      "note_off channel=0 note=37 velocity=64 time=0\n",
      "note_on channel=0 note=39 velocity=84 time=0\n",
      "note_off channel=0 note=39 velocity=64 time=0\n",
      "note_on channel=0 note=39 velocity=72 time=0\n",
      "note_off channel=0 note=39 velocity=64 time=0\n",
      "note_on channel=0 note=39 velocity=67 time=0\n",
      "note_off channel=0 note=39 velocity=64 time=0\n",
      "note_on channel=0 note=39 velocity=94 time=0\n",
      "note_off channel=0 note=39 velocity=64 time=0\n",
      "note_on channel=0 note=41 velocity=83 time=0\n",
      "note_off channel=0 note=41 velocity=64 time=0\n",
      "note_on channel=0 note=41 velocity=74 time=0\n",
      "note_off channel=0 note=41 velocity=64 time=0\n",
      "note_on channel=0 note=41 velocity=75 time=0\n",
      "note_off channel=0 note=41 velocity=64 time=0\n",
      "note_on channel=0 note=41 velocity=1 time=0\n"
     ]
    },
    {
     "name": "stdout",
     "output_type": "stream",
     "text": [
      "note_off channel=0 note=41 velocity=64 time=0\n",
      "note_on channel=0 note=39 velocity=75 time=0\n",
      "note_off channel=0 note=39 velocity=64 time=0\n",
      "note_on channel=0 note=39 velocity=75 time=0\n",
      "note_off channel=0 note=39 velocity=64 time=0\n",
      "note_on channel=0 note=37 velocity=84 time=0\n",
      "note_off channel=0 note=37 velocity=64 time=0\n",
      "note_on channel=0 note=39 velocity=89 time=0\n",
      "note_off channel=0 note=39 velocity=64 time=0\n",
      "note_on channel=0 note=38 velocity=81 time=0\n",
      "note_off channel=0 note=38 velocity=64 time=0\n",
      "note_on channel=0 note=40 velocity=76 time=0\n",
      "note_off channel=0 note=40 velocity=64 time=0\n",
      "note_on channel=0 note=41 velocity=84 time=0\n",
      "note_off channel=0 note=41 velocity=64 time=0\n",
      "note_on channel=0 note=43 velocity=76 time=0\n",
      "note_off channel=0 note=43 velocity=64 time=0\n",
      "note_on channel=0 note=44 velocity=58 time=0\n",
      "note_off channel=0 note=44 velocity=64 time=0\n",
      "note_on channel=0 note=44 velocity=43 time=0\n",
      "note_off channel=0 note=44 velocity=64 time=0\n",
      "note_on channel=0 note=47 velocity=70 time=0\n",
      "note_off channel=0 note=47 velocity=64 time=0\n",
      "note_on channel=0 note=46 velocity=61 time=0\n",
      "note_off channel=0 note=46 velocity=64 time=0\n",
      "note_on channel=0 note=47 velocity=76 time=0\n",
      "note_off channel=0 note=47 velocity=64 time=0\n",
      "note_on channel=0 note=47 velocity=58 time=0\n",
      "note_off channel=0 note=47 velocity=64 time=0\n",
      "note_on channel=0 note=48 velocity=98 time=0\n",
      "note_off channel=0 note=48 velocity=64 time=0\n",
      "note_on channel=0 note=48 velocity=77 time=0\n",
      "note_off channel=0 note=48 velocity=64 time=0\n",
      "note_on channel=0 note=49 velocity=70 time=0\n",
      "note_off channel=0 note=49 velocity=64 time=0\n",
      "note_on channel=0 note=48 velocity=90 time=0\n",
      "note_off channel=0 note=48 velocity=64 time=0\n",
      "note_on channel=0 note=49 velocity=68 time=0\n",
      "note_off channel=0 note=49 velocity=64 time=0\n",
      "note_on channel=0 note=48 velocity=81 time=0\n",
      "note_off channel=0 note=48 velocity=64 time=0\n",
      "note_on channel=0 note=49 velocity=66 time=0\n",
      "note_off channel=0 note=49 velocity=64 time=0\n",
      "note_on channel=0 note=48 velocity=98 time=0\n",
      "note_off channel=0 note=48 velocity=64 time=0\n",
      "note_on channel=0 note=49 velocity=64 time=0\n",
      "note_off channel=0 note=49 velocity=64 time=0\n",
      "note_on channel=0 note=40 velocity=69 time=0\n",
      "note_off channel=0 note=40 velocity=64 time=0\n",
      "note_on channel=0 note=40 velocity=64 time=0\n",
      "note_off channel=0 note=40 velocity=64 time=0\n",
      "note_on channel=0 note=40 velocity=33 time=0\n",
      "note_off channel=0 note=40 velocity=64 time=0\n",
      "control_change channel=0 control=16 value=127 time=0\n",
      "control_change channel=0 control=1 value=93 time=0\n",
      "control_change channel=0 control=2 value=105 time=0\n",
      "control_change channel=0 control=1 value=91 time=0\n",
      "control_change channel=0 control=2 value=106 time=0\n",
      "control_change channel=0 control=1 value=90 time=0\n",
      "control_change channel=0 control=1 value=80 time=0\n",
      "control_change channel=0 control=2 value=110 time=0\n",
      "control_change channel=0 control=1 value=78 time=0\n",
      "control_change channel=0 control=2 value=112 time=0\n",
      "control_change channel=0 control=2 value=115 time=0\n",
      "control_change channel=0 control=1 value=74 time=0\n",
      "control_change channel=0 control=1 value=68 time=0\n",
      "control_change channel=0 control=1 value=67 time=0\n",
      "control_change channel=0 control=2 value=118 time=0\n",
      "control_change channel=0 control=1 value=64 time=0\n",
      "control_change channel=0 control=1 value=61 time=0\n",
      "control_change channel=0 control=1 value=60 time=0\n",
      "control_change channel=0 control=2 value=120 time=0\n",
      "control_change channel=0 control=1 value=59 time=0\n",
      "control_change channel=0 control=1 value=55 time=0\n",
      "control_change channel=0 control=1 value=53 time=0\n",
      "control_change channel=0 control=1 value=51 time=0\n",
      "control_change channel=0 control=1 value=48 time=0\n",
      "control_change channel=0 control=1 value=45 time=0\n",
      "control_change channel=0 control=1 value=43 time=0\n",
      "control_change channel=0 control=1 value=40 time=0\n",
      "control_change channel=0 control=1 value=36 time=0\n",
      "control_change channel=0 control=1 value=34 time=0\n",
      "control_change channel=0 control=1 value=32 time=0\n",
      "control_change channel=0 control=1 value=29 time=0\n",
      "control_change channel=0 control=1 value=25 time=0\n",
      "control_change channel=0 control=1 value=22 time=0\n",
      "control_change channel=0 control=1 value=20 time=0\n",
      "control_change channel=0 control=1 value=18 time=0\n",
      "control_change channel=0 control=1 value=17 time=0\n",
      "control_change channel=0 control=1 value=14 time=0\n",
      "control_change channel=0 control=1 value=11 time=0\n",
      "control_change channel=0 control=1 value=8 time=0\n",
      "control_change channel=0 control=1 value=5 time=0\n",
      "control_change channel=0 control=1 value=4 time=0\n",
      "control_change channel=0 control=1 value=2 time=0\n",
      "control_change channel=0 control=1 value=1 time=0\n",
      "control_change channel=0 control=1 value=0 time=0\n",
      "control_change channel=0 control=2 value=121 time=0\n",
      "control_change channel=0 control=2 value=123 time=0\n",
      "control_change channel=0 control=16 value=0 time=0\n",
      "control_change channel=0 control=16 value=127 time=0\n",
      "control_change channel=0 control=1 value=50 time=0\n",
      "control_change channel=0 control=2 value=120 time=0\n",
      "control_change channel=0 control=1 value=49 time=0\n",
      "control_change channel=0 control=1 value=48 time=0\n",
      "control_change channel=0 control=1 value=45 time=0\n",
      "control_change channel=0 control=2 value=118 time=0\n",
      "control_change channel=0 control=1 value=43 time=0\n",
      "control_change channel=0 control=2 value=111 time=0\n",
      "control_change channel=0 control=2 value=106 time=0\n",
      "control_change channel=0 control=2 value=105 time=0\n",
      "control_change channel=0 control=2 value=102 time=0\n",
      "control_change channel=0 control=2 value=100 time=0\n",
      "control_change channel=0 control=2 value=95 time=0\n",
      "control_change channel=0 control=2 value=92 time=0\n",
      "control_change channel=0 control=2 value=90 time=0\n",
      "control_change channel=0 control=2 value=89 time=0\n",
      "control_change channel=0 control=2 value=82 time=0\n",
      "control_change channel=0 control=2 value=77 time=0\n",
      "control_change channel=0 control=1 value=42 time=0\n",
      "control_change channel=0 control=2 value=75 time=0\n",
      "control_change channel=0 control=1 value=43 time=0\n",
      "control_change channel=0 control=2 value=73 time=0\n",
      "control_change channel=0 control=2 value=70 time=0\n",
      "control_change channel=0 control=2 value=68 time=0\n",
      "control_change channel=0 control=2 value=62 time=0\n",
      "control_change channel=0 control=2 value=60 time=0\n",
      "control_change channel=0 control=1 value=46 time=0\n",
      "control_change channel=0 control=1 value=49 time=0\n",
      "control_change channel=0 control=1 value=51 time=0\n",
      "control_change channel=0 control=2 value=58 time=0\n",
      "control_change channel=0 control=1 value=53 time=0\n",
      "control_change channel=0 control=1 value=54 time=0\n",
      "control_change channel=0 control=2 value=56 time=0\n",
      "control_change channel=0 control=1 value=56 time=0\n",
      "control_change channel=0 control=1 value=60 time=0\n",
      "control_change channel=0 control=1 value=62 time=0\n",
      "control_change channel=0 control=1 value=64 time=0\n",
      "control_change channel=0 control=1 value=66 time=0\n",
      "control_change channel=0 control=1 value=67 time=0\n",
      "control_change channel=0 control=1 value=70 time=0\n",
      "control_change channel=0 control=1 value=73 time=0\n",
      "control_change channel=0 control=2 value=59 time=0\n",
      "control_change channel=0 control=1 value=75 time=0\n",
      "control_change channel=0 control=1 value=77 time=0\n",
      "control_change channel=0 control=2 value=60 time=0\n",
      "control_change channel=0 control=1 value=83 time=0\n",
      "control_change channel=0 control=2 value=73 time=0\n",
      "control_change channel=0 control=1 value=84 time=0\n",
      "control_change channel=0 control=1 value=86 time=0\n",
      "control_change channel=0 control=1 value=88 time=0\n",
      "control_change channel=0 control=1 value=90 time=0\n",
      "control_change channel=0 control=2 value=75 time=0\n",
      "control_change channel=0 control=2 value=76 time=0\n",
      "control_change channel=0 control=16 value=0 time=0\n",
      "note_on channel=0 note=44 velocity=49 time=0\n",
      "note_off channel=0 note=44 velocity=64 time=0\n",
      "note_on channel=0 note=46 velocity=27 time=0\n",
      "note_on channel=0 note=44 velocity=37 time=0\n",
      "note_off channel=0 note=46 velocity=64 time=0\n",
      "note_off channel=0 note=44 velocity=64 time=0\n"
     ]
    },
    {
     "ename": "KeyboardInterrupt",
     "evalue": "",
     "output_type": "error",
     "traceback": [
      "\u001b[1;31m---------------------------------------------------------------------------\u001b[0m",
      "\u001b[1;31mKeyboardInterrupt\u001b[0m                         Traceback (most recent call last)",
      "Cell \u001b[1;32mIn[1], line 8\u001b[0m\n\u001b[0;32m      5\u001b[0m \u001b[38;5;28mprint\u001b[39m(names)\n\u001b[0;32m      7\u001b[0m \u001b[38;5;28;01mwith\u001b[39;00m mido\u001b[38;5;241m.\u001b[39mopen_input(names[\u001b[38;5;241m0\u001b[39m]) \u001b[38;5;28;01mas\u001b[39;00m inport:\n\u001b[1;32m----> 8\u001b[0m     \u001b[38;5;28;01mfor\u001b[39;00m msg \u001b[38;5;129;01min\u001b[39;00m inport:\n\u001b[0;32m      9\u001b[0m         \u001b[38;5;28mprint\u001b[39m(msg)\n",
      "File \u001b[1;32m~\\AppData\\Local\\Programs\\Python\\Python310\\lib\\site-packages\\mido\\ports.py:243\u001b[0m, in \u001b[0;36mBaseInput.__iter__\u001b[1;34m(self)\u001b[0m\n\u001b[0;32m    241\u001b[0m \u001b[38;5;28;01mwhile\u001b[39;00m \u001b[38;5;28;01mTrue\u001b[39;00m:\n\u001b[0;32m    242\u001b[0m     \u001b[38;5;28;01mtry\u001b[39;00m:\n\u001b[1;32m--> 243\u001b[0m         \u001b[38;5;28;01myield\u001b[39;00m \u001b[38;5;28;43mself\u001b[39;49m\u001b[38;5;241;43m.\u001b[39;49m\u001b[43mreceive\u001b[49m\u001b[43m(\u001b[49m\u001b[43m)\u001b[49m\n\u001b[0;32m    244\u001b[0m     \u001b[38;5;28;01mexcept\u001b[39;00m \u001b[38;5;167;01mOSError\u001b[39;00m:\n\u001b[0;32m    245\u001b[0m         \u001b[38;5;28;01mif\u001b[39;00m \u001b[38;5;28mself\u001b[39m\u001b[38;5;241m.\u001b[39mclosed:\n\u001b[0;32m    246\u001b[0m             \u001b[38;5;66;03m# The port closed before or inside receive().\u001b[39;00m\n\u001b[0;32m    247\u001b[0m             \u001b[38;5;66;03m# (This makes the assumption that this is the reason,\u001b[39;00m\n\u001b[0;32m    248\u001b[0m             \u001b[38;5;66;03m# at the risk of masking other errors.)\u001b[39;00m\n",
      "File \u001b[1;32m~\\AppData\\Local\\Programs\\Python\\Python310\\lib\\site-packages\\mido\\ports.py:227\u001b[0m, in \u001b[0;36mBaseInput.receive\u001b[1;34m(self, block)\u001b[0m\n\u001b[0;32m    224\u001b[0m     \u001b[38;5;28;01melif\u001b[39;00m \u001b[38;5;28mself\u001b[39m\u001b[38;5;241m.\u001b[39mclosed:\n\u001b[0;32m    225\u001b[0m         \u001b[38;5;28;01mraise\u001b[39;00m \u001b[38;5;167;01mOSError\u001b[39;00m(\u001b[38;5;124m'\u001b[39m\u001b[38;5;124mport closed during receive()\u001b[39m\u001b[38;5;124m'\u001b[39m)\n\u001b[1;32m--> 227\u001b[0m \u001b[43msleep\u001b[49m\u001b[43m(\u001b[49m\u001b[43m)\u001b[49m\n",
      "File \u001b[1;32m~\\AppData\\Local\\Programs\\Python\\Python310\\lib\\site-packages\\mido\\ports.py:26\u001b[0m, in \u001b[0;36msleep\u001b[1;34m()\u001b[0m\n\u001b[0;32m     21\u001b[0m \u001b[38;5;28;01mdef\u001b[39;00m \u001b[38;5;21msleep\u001b[39m():\n\u001b[0;32m     22\u001b[0m \u001b[38;5;250m    \u001b[39m\u001b[38;5;124;03m\"\"\"Sleep for N seconds.\u001b[39;00m\n\u001b[0;32m     23\u001b[0m \n\u001b[0;32m     24\u001b[0m \u001b[38;5;124;03m    This is used in ports when polling and waiting for messages. N can\u001b[39;00m\n\u001b[0;32m     25\u001b[0m \u001b[38;5;124;03m    be set with set_sleep_time().\"\"\"\u001b[39;00m\n\u001b[1;32m---> 26\u001b[0m     \u001b[43mtime\u001b[49m\u001b[38;5;241;43m.\u001b[39;49m\u001b[43msleep\u001b[49m\u001b[43m(\u001b[49m\u001b[43m_sleep_time\u001b[49m\u001b[43m)\u001b[49m\n",
      "\u001b[1;31mKeyboardInterrupt\u001b[0m: "
     ]
    }
   ],
   "source": [
    "import mido\n",
    "\n",
    "mido.set_backend('mido.backends.pygame')\n",
    "names = mido.get_input_names()\n",
    "print(names)\n",
    "\n",
    "with mido.open_input(names[0]) as inport:\n",
    "    for msg in inport:\n",
    "        print(msg)"
   ]
  },
  {
   "cell_type": "code",
   "execution_count": null,
   "id": "424b99fc",
   "metadata": {},
   "outputs": [],
   "source": []
  }
 ],
 "metadata": {
  "kernelspec": {
   "display_name": "Python 3 (ipykernel)",
   "language": "python",
   "name": "python3"
  },
  "language_info": {
   "codemirror_mode": {
    "name": "ipython",
    "version": 3
   },
   "file_extension": ".py",
   "mimetype": "text/x-python",
   "name": "python",
   "nbconvert_exporter": "python",
   "pygments_lexer": "ipython3",
   "version": "3.10.8"
  }
 },
 "nbformat": 4,
 "nbformat_minor": 5
}
